<svg width="48" height="48" viewBox="0 0 48 48" fill="none" xmlns="http://www.w3.org/2000/svg">
<path d="M16.5 36H31.5V39H16.5V36Z" fill="white"/>
<path d="M19.5 42H28.5V45H19.5V42Z" fill="white"/>
<path d="M24.0001 3C20.0219 3 16.2066 4.58035 13.3935 7.3934C10.5805 10.2064 9.00013 14.0218 9.00013 18C8.89869 20.18 9.31629 22.3529 10.2186 24.34C11.1209 26.3272 12.482 28.0716 14.1901 29.43C15.6901 30.825 16.5001 31.62 16.5001 33H19.5001C19.5001 30.24 17.8351 28.695 16.2151 27.21C14.8132 26.1364 13.6958 24.7354 12.961 23.1298C12.2262 21.5241 11.8962 19.7628 12.0001 18C12.0001 14.8174 13.2644 11.7652 15.5148 9.51472C17.7653 7.26428 20.8175 6 24.0001 6C27.1827 6 30.235 7.26428 32.4854 9.51472C34.7358 11.7652 36.0001 14.8174 36.0001 18C36.1023 19.7641 35.7701 21.5262 35.0326 23.132C34.2951 24.7377 33.1748 26.138 31.7701 27.21C30.1651 28.71 28.5001 30.21 28.5001 33H31.5001C31.5001 31.62 32.2951 30.825 33.8101 29.415C35.517 28.059 36.8776 26.317 37.7799 24.3325C38.6822 22.348 39.1004 20.1777 39.0001 18C39.0001 16.0302 38.6121 14.0796 37.8583 12.2597C37.1045 10.4399 35.9996 8.78628 34.6067 7.3934C33.2139 6.00052 31.5603 4.89563 29.7404 4.14181C27.9205 3.38799 25.97 3 24.0001 3Z" fill="white"/>
</svg>
