<svg xmlns="http://www.w3.org/2000/svg" width="1156" height="202" viewBox="0 0 1156 202" fill="none">
  <path d="M0 12C0 5.37258 5.37258 0 12 0H1144C1150.63 0 1156 5.37258 1156 12V190C1156 196.627 1150.63 202 1144 202H12C5.37259 202 0 196.627 0 190V12Z" fill="#F2F2F2" fill-opacity="0.15"/>
  <path d="M0 9.04478C0 4.04949 6.93159 0 15.4821 0H1140.52C1149.07 0 1156 4.04948 1156 9.04478V192.955C1156 197.951 1149.07 202 1140.52 202H15.4822C6.9316 202 0 197.951 0 192.955V9.04478Z" fill="#F2F2F2" fill-opacity="0.15"/>
  <path d="M0.5 12C0.5 8.45747 2.10178 5.28907 4.62059 3.17953C4.67552 3.14642 4.73093 3.11354 4.78683 3.08088C7.49936 1.4962 11.2796 0.5 15.4821 0.5H1140.52C1144.72 0.5 1148.5 1.4962 1151.21 3.08088C1151.27 3.11357 1151.32 3.1465 1151.38 3.17964C1153.9 5.28918 1155.5 8.45754 1155.5 12V190C1155.5 193.542 1153.9 196.711 1151.38 198.82C1151.32 198.853 1151.27 198.886 1151.21 198.919C1148.5 200.504 1144.72 201.5 1140.52 201.5H15.4822C11.2796 201.5 7.49937 200.504 4.78684 198.919C4.73093 198.886 4.67548 198.854 4.62056 198.82C2.10177 196.711 0.5 193.542 0.5 190V12Z" stroke="white" stroke-opacity="0.43"/>
</svg>